<svg width="671" height="286" viewBox="0 0 671 286" fill="none" xmlns="http://www.w3.org/2000/svg">
<path d="M19.9492 49.9805C20.4668 49.9805 20.7256 49.6699 20.7256 49.0747V23.0664C20.7256 22.73 20.6997 22.1348 20.6221 21.2808C20.5444 20.4268 20.5186 19.9351 20.5186 19.8315L20.7256 19.7798L31.5947 36.2129C31.7759 36.5234 32.0605 36.6787 32.397 36.6787H34.5708C34.9072 36.6787 35.166 36.5234 35.373 36.2129L46.2163 19.8315L46.3975 19.8833C46.2681 20.2197 46.2163 21.1772 46.2163 22.73V49.1265C46.2163 49.6958 46.4751 49.9805 46.9668 49.9805H48.9854C49.5288 49.9805 49.7876 49.6699 49.7876 49.0747V14.8369C49.7876 14.2417 49.5288 13.9312 49.0371 13.9312H46.5527C46.1904 13.9312 45.8799 14.1382 45.647 14.5781L33.5615 32.9263L21.3726 14.5264C21.1138 14.1382 20.8032 13.9312 20.4668 13.9312H17.8271C17.3872 13.9312 17.1802 14.1899 17.1802 14.7334V49.1265C17.1802 49.6958 17.439 49.9805 17.9307 49.9805H19.9492ZM80.9976 13.9312C80.5576 13.9312 80.2729 14.1641 80.0918 14.6299L72.0952 35.98L60.8379 14.5264C60.605 14.1382 60.2944 13.9312 59.958 13.9312H57.396C57.0078 13.957 56.8267 14.1382 56.8267 14.4746C56.8267 14.7075 56.9043 14.9922 57.0854 15.3286L70.3872 40.4312L69.9731 41.5957C68.7051 44.9341 66.7642 46.5903 64.1763 46.5903H63.4517C62.9858 46.5903 62.7529 46.8232 62.7529 47.2891V49.2817C62.7529 49.7476 63.0117 49.9805 63.5034 49.9805H64.2539C68.3169 49.9805 71.1118 47.6514 73.208 42.1392L83.6372 15.2769C83.7666 14.9146 83.8442 14.6299 83.8442 14.4229C83.8442 14.0864 83.689 13.9312 83.3784 13.9312H80.9976ZM103.072 50.4463C106.721 50.4463 109.671 49.3853 111.975 47.2373C114.252 45.1152 115.391 42.6309 115.391 39.8101C115.391 39.2148 115.132 38.9043 114.588 38.9043H112.622C112.052 38.9043 111.768 39.2148 111.768 39.8101C111.742 41.751 110.914 43.459 109.283 44.96C107.653 46.4868 105.608 47.2373 103.15 47.2373C99.6562 47.2373 96.939 45.7622 95.0239 42.812C93.083 39.8618 92.1255 36.2646 92.1255 32.0205C92.1255 27.7505 93.083 24.1274 95.0239 21.1514C96.939 18.1753 99.6562 16.7002 103.15 16.7002C105.375 16.7002 107.213 17.373 108.636 18.6929C110.06 20.0386 110.784 21.6431 110.81 23.5322C110.81 24.1274 111.095 24.438 111.664 24.438H113.683C114.174 24.438 114.433 24.1274 114.433 23.5322C114.433 20.7373 113.398 18.3564 111.302 16.3896C109.206 14.4487 106.54 13.4653 103.253 13.4653C98.5693 13.4653 94.9204 15.1992 92.2808 18.6929C89.6152 22.1865 88.2954 26.6377 88.2954 32.0723C88.2954 35.3848 88.8389 38.4126 89.8999 41.1299C90.9609 43.8472 92.6172 46.0986 94.9204 47.8325C97.2236 49.5664 99.9409 50.4463 103.072 50.4463ZM133.868 13.9312C129.883 13.9312 126.777 14.9663 124.578 17.0625C122.378 19.1587 121.265 21.876 121.265 25.2402C121.265 30.5972 124.396 34.4014 129.572 35.8247L119.712 48.1689C119.272 48.7642 119.04 49.1782 119.04 49.3853C119.014 49.7734 119.247 49.9805 119.712 49.9805H122.171C122.533 49.9805 122.87 49.7993 123.18 49.4629L133.299 36.3682H133.92H140.493V49.0747C140.493 49.6699 140.752 49.9805 141.295 49.9805H143.314C143.857 49.9805 144.116 49.6958 144.116 49.1265V14.7852C144.116 14.2158 143.883 13.9312 143.417 13.9312H133.868ZM134.67 33.0815C128.537 33.0815 124.966 30.416 124.966 25.1108C124.966 22.7041 125.794 20.8149 127.424 19.4175C129.055 18.02 131.332 17.3213 134.256 17.3213H140.493V33.0815H134.67Z" fill="white"/>
<path d="M477.158 50.4463C480.807 50.4463 483.757 49.3853 486.06 47.2373C488.337 45.1152 489.476 42.6309 489.476 39.8101C489.476 39.2148 489.217 38.9043 488.674 38.9043H486.707C486.138 38.9043 485.853 39.2148 485.853 39.8101C485.827 41.751 484.999 43.459 483.369 44.96C481.738 46.4868 479.694 47.2373 477.235 47.2373C473.742 47.2373 471.024 45.7622 469.109 42.812C467.168 39.8618 466.211 36.2646 466.211 32.0205C466.211 27.7505 467.168 24.1274 469.109 21.1514C471.024 18.1753 473.742 16.7002 477.235 16.7002C479.461 16.7002 481.298 17.373 482.722 18.6929C484.145 20.0386 484.87 21.6431 484.896 23.5322C484.896 24.1274 485.18 24.438 485.75 24.438H487.768C488.26 24.438 488.519 24.1274 488.519 23.5322C488.519 20.7373 487.483 18.3564 485.387 16.3896C483.291 14.4487 480.625 13.4653 477.339 13.4653C472.655 13.4653 469.006 15.1992 466.366 18.6929C463.701 22.1865 462.381 26.6377 462.381 32.0723C462.381 35.3848 462.924 38.4126 463.985 41.1299C465.046 43.8472 466.703 46.0986 469.006 47.8325C471.309 49.5664 474.026 50.4463 477.158 50.4463ZM500.759 49.9805C501.07 49.9805 501.303 49.8511 501.432 49.5664L519.78 20.2974L519.884 20.3491C519.754 22.0312 519.677 23.4805 519.677 24.645V49.0747C519.677 49.6699 519.936 49.9805 520.479 49.9805H522.498C522.989 49.9805 523.222 49.6958 523.222 49.1265V14.7334C523.248 14.1899 523.015 13.9312 522.549 13.9312H520.324C519.987 13.957 519.754 14.1123 519.573 14.4229L501.277 43.7178L501.173 43.666C501.277 42.605 501.329 41.2593 501.329 39.603V14.7334C501.354 14.1899 501.122 13.9312 500.656 13.9312H498.585C498.042 13.9312 497.783 14.2417 497.783 14.8369V49.0747C497.783 49.6699 498.042 49.9805 498.585 49.9805H500.759ZM537.456 49.9805C537.973 49.9805 538.232 49.6699 538.232 49.0747V23.0664C538.232 22.73 538.206 22.1348 538.128 21.2808C538.051 20.4268 538.025 19.9351 538.025 19.8315L538.232 19.7798L549.101 36.2129C549.282 36.5234 549.567 36.6787 549.903 36.6787H552.077C552.414 36.6787 552.672 36.5234 552.879 36.2129L563.723 19.8315L563.904 19.8833C563.774 20.2197 563.723 21.1772 563.723 22.73V49.1265C563.723 49.6958 563.981 49.9805 564.473 49.9805H566.492C567.035 49.9805 567.294 49.6699 567.294 49.0747V14.8369C567.294 14.2417 567.035 13.9312 566.543 13.9312H564.059C563.697 13.9312 563.386 14.1382 563.153 14.5781L551.068 32.9263L538.879 14.5264C538.62 14.1382 538.31 13.9312 537.973 13.9312H535.333C534.894 13.9312 534.687 14.1899 534.687 14.7334V49.1265C534.687 49.6958 534.945 49.9805 535.437 49.9805H537.456ZM590.973 14.5264C590.87 14.1382 590.637 13.9312 590.3 13.9312H587.687C587.298 13.9312 587.065 14.1382 586.962 14.5264L575.032 48.6606C574.902 49.1006 574.825 49.3853 574.825 49.5146C574.799 49.8252 575.006 49.9805 575.394 49.9805H577.723C578.111 49.9805 578.396 49.7476 578.525 49.2817L581.165 41.4922H596.641L599.254 49.2817C599.384 49.7476 599.643 49.9805 600.031 49.9805H602.489C602.903 49.9805 603.11 49.8252 603.11 49.5146C603.11 49.3853 603.033 49.1006 602.903 48.6606L590.973 14.5264ZM588.851 18.7705H589.006L595.528 38.2573H582.226L588.851 18.7705Z" fill="white"/>
<path d="M238.576 13.9312C238.084 13.9312 237.825 14.1899 237.825 14.7334V16.5967C237.825 17.0884 238.11 17.3213 238.679 17.3213H249.238V49.1265C249.212 49.6958 249.471 49.9805 249.962 49.9805H252.033C252.576 49.9805 252.835 49.6699 252.835 49.0747V17.3213H263.497C264.015 17.3472 264.273 17.0625 264.273 16.4932V14.6816C264.299 14.1899 264.066 13.9312 263.601 13.9312H238.576ZM282.052 50.4463C286.503 50.4463 290.075 48.7124 292.74 45.2446C295.406 41.8027 296.726 37.3774 296.726 31.9688C296.726 26.4824 295.432 22.0312 292.87 18.5894C290.282 15.1733 286.788 13.4653 282.363 13.4653C277.912 13.4653 274.34 15.1733 271.675 18.6152C268.983 22.0571 267.638 26.5083 267.638 31.9429C267.638 37.4033 268.932 41.8286 271.545 45.2705C274.133 48.7124 277.627 50.4463 282.052 50.4463ZM282.052 47.2373C279.154 47.2373 276.669 45.8657 274.599 43.1484C272.503 40.4312 271.468 36.6787 271.468 31.8911C271.468 27.1294 272.529 23.4028 274.651 20.7114C276.747 18.0459 279.335 16.7002 282.363 16.7002C285.339 16.7002 287.823 18.0459 289.868 20.7632C291.912 23.4805 292.921 27.1812 292.921 31.917C292.921 36.6787 291.86 40.4312 289.738 43.1484C287.616 45.8657 285.054 47.2373 282.052 47.2373ZM308.604 49.9805C309.122 49.9805 309.38 49.6699 309.38 49.0747V23.0664C309.38 22.73 309.354 22.1348 309.277 21.2808C309.199 20.4268 309.173 19.9351 309.173 19.8315L309.38 19.7798L320.25 36.2129C320.431 36.5234 320.715 36.6787 321.052 36.6787H323.226C323.562 36.6787 323.821 36.5234 324.028 36.2129L334.871 19.8315L335.052 19.8833C334.923 20.2197 334.871 21.1772 334.871 22.73V49.1265C334.871 49.6958 335.13 49.9805 335.622 49.9805H337.64C338.184 49.9805 338.442 49.6699 338.442 49.0747V14.8369C338.442 14.2417 338.184 13.9312 337.692 13.9312H335.208C334.845 13.9312 334.535 14.1382 334.302 14.5781L322.216 32.9263L310.027 14.5264C309.769 14.1382 309.458 13.9312 309.122 13.9312H306.482C306.042 13.9312 305.835 14.1899 305.835 14.7334V49.1265C305.835 49.6958 306.094 49.9805 306.585 49.9805H308.604ZM362.122 14.5264C362.018 14.1382 361.785 13.9312 361.449 13.9312H358.835C358.447 13.9312 358.214 14.1382 358.11 14.5264L346.18 48.6606C346.051 49.1006 345.973 49.3853 345.973 49.5146C345.947 49.8252 346.154 49.9805 346.542 49.9805H348.872C349.26 49.9805 349.544 49.7476 349.674 49.2817L352.313 41.4922H367.789L370.403 49.2817C370.532 49.7476 370.791 49.9805 371.179 49.9805H373.638C374.052 49.9805 374.259 49.8252 374.259 49.5146C374.259 49.3853 374.181 49.1006 374.052 48.6606L362.122 14.5264ZM360 18.7705H360.155L366.676 38.2573H353.375L360 18.7705Z" fill="white"/>
<path d="M0.216293 106.275L0.216309 285.501L171.132 285.501L171.132 107.062L85.5491 195.757L0.216293 106.275Z" fill="#F40303"/>
<path d="M225.855 106.275L225.855 285.501L396.771 285.501L396.771 107.062L311.188 195.757L225.855 106.275Z" fill="white"/>
<path d="M451.494 106.275L451.494 285.501L622.41 285.501L622.41 107.062L536.827 195.757L451.494 106.275Z" fill="#6B6B6B"/>
<path d="M622.035 279.527C609.212 279.527 596.913 274.571 587.846 265.748C578.778 256.925 573.684 244.958 573.684 232.48C573.684 220.003 578.778 208.036 587.846 199.213C596.913 190.39 609.212 185.434 622.035 185.434L622.035 232.48L622.035 279.527Z" fill="#FF0B0B"/>
<path d="M557.774 174.088C561.952 178.091 564.801 183.278 565.954 188.981C567.108 194.684 566.512 200.641 564.243 206.083C561.975 211.526 558.138 216.203 553.228 219.513C548.319 222.822 542.561 224.611 536.699 224.649C530.837 224.687 525.14 222.972 520.342 219.726C515.544 216.479 511.866 211.85 509.783 206.436C507.7 201.022 507.307 195.072 508.655 189.352C510.003 183.633 513.03 178.408 517.346 174.351L537.198 195.406L557.774 174.088Z" fill="#8A8A8A"/>
<path d="M451.869 260.857C456.545 260.857 461.175 259.93 465.495 258.129C469.816 256.327 473.741 253.687 477.047 250.359C480.354 247.03 482.977 243.079 484.766 238.73C486.556 234.381 487.477 229.719 487.477 225.012C487.477 220.305 486.556 215.644 484.766 211.295C482.977 206.946 480.354 202.994 477.047 199.666C473.741 196.337 469.816 193.697 465.495 191.896C461.175 190.094 456.545 189.167 451.869 189.167L451.869 225.012V260.857Z" fill="#D6D6D6"/>
</svg>
